<svg width="119" height="46" viewBox="0 0 119 46" fill="none" xmlns="http://www.w3.org/2000/svg">
<path d="M41.252 31.9782C43.9595 30.5043 46.4141 28.3486 48.9766 25.2009C51.2073 22.4613 57.9368 11.9483 57.9368 11.9483L65.8688 24.2863H77.4246C75.7288 21.7469 65.7112 6.74685 63.9449 3.8971C62.3444 1.3168 59.1766 -0.0264196 56.4151 0.696226C54.6654 1.15349 53.3385 2.07211 52.3517 3.49291C52.1817 3.74195 51.5763 4.62791 50.7098 5.89764C47.3927 10.7724 40.4849 20.9181 39.3612 22.347C37.3917 24.8497 34.6137 26.1889 31.3215 26.2134C24.7537 26.2665 10.7183 26.2297 10.5773 26.2297H10.341V21.1875H10.5773C11.361 21.1794 29.7832 21.0365 31.0354 21.1671C32.3746 21.3059 33.349 22.4491 33.3573 23.8821V24.3353C36.1146 23.7229 39.0627 20.9875 39.8671 18.2806L38.6605 17.5539L39.042 17.362C39.1498 17.3089 39.2161 17.2762 39.2617 17.2477C42.16 15.3043 43.3707 12.5525 42.8607 9.06585C42.5083 6.64887 41.2561 4.75039 39.1415 3.41533C37.0559 2.10069 34.5059 1.38621 31.5661 1.28822C28.4563 1.18616 8.69073 1.16166 6.99073 1.15758L0.0953659 9.64152C3.31293 9.64152 21.3661 9.64968 30.3263 9.65377H30.3761C30.7037 9.65377 31.0354 9.65377 31.3671 9.69051C31.9061 9.75175 32.4659 10.111 32.8556 10.654C33.2246 11.1603 33.3739 11.7237 33.2702 12.1973C32.9676 13.5854 32.1093 14.2877 30.7202 14.2877H30.3885C26.0971 14.2877 2.62463 14.4428 0 14.4592V34.2809L32.8224 34.1012C34.0041 34.0931 35.2729 34.0482 36.5376 33.746C38.2873 33.3255 39.8256 32.7498 41.2437 31.9782H41.252Z" fill="white"/>
<path d="M116.603 16.0146C115.057 14.655 113.079 14.2998 111.188 14.0508C110.376 13.9446 105.379 13.7078 100.545 13.4792C95.4156 13.2383 90.5726 13.0056 89.7973 12.8994C89.0136 12.7892 88.3585 12.2258 88.0475 11.3929C87.72 10.511 87.8651 9.57201 88.4331 8.94326C88.7483 8.59215 89.25 8.30227 89.7102 8.20429C91.0163 7.92666 93.2222 7.85725 94.1095 7.84092C96.9953 7.78785 104.745 7.95524 105.802 8.06547C107.328 8.22878 108.083 9.05758 108.041 10.5192L108.058 11.1194H117.756L117.735 10.6499C117.715 10.262 117.698 9.86596 117.686 9.47402C117.648 8.51866 117.611 7.52655 117.458 6.57935C117.113 4.44816 116.085 3.00695 114.319 2.16999C112.639 1.37794 110.732 0.924754 108.485 0.777775C106.018 0.618548 89.9797 0.361335 84.7885 1.12073C83.2751 1.34119 81.969 1.90461 80.9075 2.79873C79.5392 3.95007 78.7929 5.53417 78.4902 7.94299C78.1295 10.7927 78.2 13.0913 78.7017 15.1776C78.9878 16.3698 79.419 17.2843 80.0534 18.0437C81.3512 19.6033 83.1258 20.1177 85.3939 20.4076C86.19 20.5097 87.0109 20.5423 87.8112 20.5709C88.0973 20.5832 88.3834 20.5913 88.6653 20.6077C92.5795 20.7996 104.538 21.2527 106.532 21.3181C108.219 21.3711 109.045 22.0285 109.285 23.5146C109.434 24.4414 109.26 25.2947 108.767 26.05L108.696 26.1561H64.5958L64.5253 26.0377C62.5765 22.7429 58.8822 16.4841 57.9575 14.9122C57.4019 15.937 55.8429 18.8113 55.0468 20.1259C53.0856 23.3635 51.0953 26.0295 48.9558 28.2751C46.3685 30.9901 43.9222 32.8069 41.2644 33.9909C41.1234 34.0521 40.9285 34.1338 40.7129 34.2236C46.7997 34.2359 74.8 34.293 88.997 34.2849C89.7185 34.2849 90.44 34.2644 91.1614 34.244C91.8912 34.2236 92.6209 34.2032 93.3507 34.2032H93.3631C94.1053 34.2032 94.8641 34.2236 95.5939 34.244C96.2573 34.2644 96.9207 34.2808 97.5841 34.2849C98.8197 34.293 100.055 34.2889 101.295 34.2849H103.136C103.994 34.2849 104.853 34.2849 105.711 34.293C107.954 34.3134 110.558 34.2808 113.087 33.701C114.978 33.2682 116.297 32.4884 117.238 31.2555C118.366 29.7775 118.643 28.0301 118.851 26.2214C119.104 24.0127 119.029 21.8407 118.635 19.7625C118.332 18.1784 117.669 16.9536 116.608 16.0187H116.603V16.0146Z" fill="white"/>
<path d="M3.72723 45.2632H0.157227V36.4404H3.72723C5.1204 36.4404 6.77479 36.9263 6.77479 38.7064C6.77479 39.678 6.18186 40.3272 5.30698 40.613V40.6375C6.33113 40.813 7.14381 41.5357 7.14381 42.6952C7.14381 44.6141 5.43552 45.2632 3.72723 45.2632ZM3.30845 38.1348H2.24698V39.9557H3.4121C4.22064 39.9557 4.68918 39.6209 4.68918 38.9962C4.68918 38.3716 4.22064 38.1348 3.30845 38.1348ZM3.44942 41.5234H2.24698V43.5403H3.46186C4.14601 43.5403 4.97942 43.3525 4.97942 42.4951C4.97942 41.7602 4.36991 41.5234 3.44942 41.5234Z" fill="white"/>
<path d="M8.57031 45.2632V36.4404H14.5949V38.245H10.6601V39.9026H14.3793V41.6092H10.6601V43.4423H14.823V45.2632H8.57031Z" fill="white"/>
<path d="M20.0853 38.2613V45.2632H17.9209V38.2613H15.3916V36.4404H22.6145V38.2613H20.0853Z" fill="white"/>
<path d="M28.9166 45.2632L28.22 43.5322H24.7536L24.0944 45.2632H21.7393L25.4958 36.4404H27.598L31.3173 45.2632H28.9124H28.9166ZM26.5117 38.7962L25.3715 41.8256H27.6229L26.5076 38.7962H26.5117Z" fill="white"/>
<path d="M37.7605 45.2632L34.1532 39.4943H34.1159L34.1657 45.2632H32.0635V36.4404H34.5305L38.1254 42.1971H38.1627L38.113 36.4404H40.2152V45.2632H37.7605Z" fill="white"/>
<path d="M46.414 41.5276V45.2633H44.2496V41.5276L40.8828 36.4446H43.5033L45.4148 39.7067L47.3262 36.4446H49.8555L46.414 41.5276Z" fill="white"/>
<path d="M55.2581 38.7349C54.8891 38.2736 54.2215 37.9756 53.6617 37.9756C53.102 37.9756 52.4096 38.1634 52.4096 38.8615C52.4096 39.4453 52.9403 39.6331 53.7903 39.8944C55.0052 40.2823 56.5725 40.7926 56.5725 42.5482C56.5725 44.5773 54.9139 45.4878 53.1435 45.4878C51.8664 45.4878 50.5727 45.0265 49.7891 44.2181L51.2071 42.7973C51.6383 43.3321 52.4344 43.7322 53.1435 43.7322C53.8027 43.7322 54.3832 43.4832 54.3832 42.7728C54.3832 42.0991 53.6991 41.8868 52.5215 41.5153C51.3813 41.156 50.2327 40.5803 50.2327 38.9881C50.2327 37.0324 52.0281 36.22 53.6991 36.22C54.7108 36.22 55.851 36.5956 56.6347 37.306L55.2539 38.739L55.2581 38.7349Z" fill="white"/>
<path d="M61.2412 41.9358H60.1673V45.2632H58.0029V36.4404H61.291C63.2522 36.4404 64.7946 37.1386 64.7946 39.1555C64.7946 41.1723 63.1112 41.9317 61.2371 41.9317H61.2412V41.9358ZM61.1168 38.1593H60.1673V40.2415H61.0795C61.8881 40.2415 62.6344 40.0047 62.6344 39.1718C62.6344 38.3389 61.888 38.1633 61.1168 38.1633V38.1593Z" fill="white"/>
<path d="M70.5546 45.5001C67.7599 45.5001 65.6826 43.6057 65.6826 40.8172C65.6826 38.0287 67.7558 36.2078 70.5546 36.2078C73.3533 36.2078 75.439 37.9878 75.439 40.8172C75.439 43.6465 73.3658 45.5001 70.5546 45.5001ZM70.5546 38.1226C69.037 38.1226 68.0004 39.2698 68.0004 40.8131C68.0004 42.3564 69.0494 43.5526 70.5546 43.5526C72.0597 43.5526 73.1253 42.4054 73.1253 40.8131C73.1253 39.2208 72.0763 38.1226 70.5546 38.1226Z" fill="white"/>
<path d="M81.6625 45.2632L79.7262 41.7602H78.9923V45.2632H76.8652V36.4404H80.2818C82.0025 36.4404 83.7108 37.0896 83.7108 39.1065C83.7108 40.2905 83.0018 41.1356 81.8491 41.4867L84.1918 45.2632H81.6625ZM80.1325 38.1633H78.9799V40.2211H80.004C80.7006 40.2211 81.5713 40.0455 81.5713 39.1514C81.5713 38.3307 80.7752 38.1674 80.1284 38.1674L80.1325 38.1633Z" fill="white"/>
<path d="M88.9388 38.2613V45.2632H86.7744V38.2613H84.2451V36.4404H91.4722V38.2613H88.9388Z" fill="white"/>
<path d="M97.1858 38.7349C96.8209 38.2736 96.1492 37.9756 95.5895 37.9756C95.0297 37.9756 94.3373 38.1634 94.3373 38.8615C94.3373 39.4453 94.868 39.6331 95.718 39.8944C96.9329 40.2823 98.5002 40.7926 98.5002 42.5482C98.5002 44.5773 96.8417 45.4878 95.0712 45.4878C93.7941 45.4878 92.5005 45.0265 91.7168 44.2181L93.1348 42.7973C93.5661 43.3321 94.3622 43.7322 95.0712 43.7322C95.7305 43.7322 96.3109 43.4832 96.3109 42.7728C96.3109 42.0991 95.6268 41.8868 94.4492 41.5153C93.309 41.156 92.1605 40.5803 92.1605 38.9881C92.1605 37.0324 93.9558 36.22 95.6268 36.22C96.6385 36.22 97.7788 36.5956 98.5624 37.306L97.1817 38.739H97.1858V38.7349Z" fill="white"/>
<path d="M100.917 45.39C100.221 45.39 99.6279 44.8674 99.6279 44.1815C99.6279 43.4956 100.208 42.9485 100.917 42.9485C101.626 42.9485 102.182 43.4833 102.182 44.1692C102.182 44.8551 101.602 45.39 100.917 45.39Z" fill="white"/>
<path d="M103.725 45.2632V36.4404H109.749V38.245H105.814V39.9026H109.534V41.6092H105.814V43.4423H109.977V45.2632H103.725Z" fill="white"/>
<path d="M115.139 45.5C112.784 45.5 111.316 44.0547 111.316 41.9358V36.4404H113.468V41.7602C113.468 42.7074 113.937 43.5811 115.152 43.5811C116.367 43.5811 116.835 42.7074 116.835 41.7602V36.4404H119V41.9358C119 44.0547 117.482 45.5 115.139 45.5Z" fill="white"/>
</svg>
