<svg width="80" height="81" viewBox="0 0 80 81" fill="none" xmlns="http://www.w3.org/2000/svg">
<path d="M20.5599 63.43C21.3849 60.6841 23.0731 58.2772 25.374 56.5666C27.675 54.8559 30.4661 53.9325 33.3332 53.9333H46.6666C49.5374 53.9323 52.3319 54.858 54.6345 56.5726C56.9371 58.2872 58.6248 60.6992 59.4466 63.45M10 40.6C10 44.5396 10.776 48.4407 12.2836 52.0805C13.7913 55.7202 16.001 59.0274 18.7868 61.8132C21.5726 64.5989 24.8797 66.8087 28.5195 68.3164C32.1593 69.824 36.0603 70.6 40 70.6C43.9397 70.6 47.8407 69.824 51.4805 68.3164C55.1203 66.8087 58.4274 64.5989 61.2132 61.8132C63.999 59.0274 66.2087 55.7202 67.7164 52.0805C69.224 48.4407 70 44.5396 70 40.6C70 36.6603 69.224 32.7592 67.7164 29.1195C66.2087 25.4797 63.999 22.1725 61.2132 19.3868C58.4274 16.601 55.1203 14.3912 51.4805 12.8836C47.8407 11.3759 43.9397 10.6 40 10.6C36.0603 10.6 32.1593 11.3759 28.5195 12.8836C24.8797 14.3912 21.5726 16.601 18.7868 19.3868C16.001 22.1725 13.7913 25.4797 12.2836 29.1195C10.776 32.7592 10 36.6603 10 40.6ZM30 33.9333C30 36.5855 31.0536 39.129 32.9289 41.0044C34.8043 42.8797 37.3478 43.9333 40 43.9333C42.6522 43.9333 45.1957 42.8797 47.0711 41.0044C48.9464 39.129 50 36.5855 50 33.9333C50 31.2811 48.9464 28.7376 47.0711 26.8622C45.1957 24.9869 42.6522 23.9333 40 23.9333C37.3478 23.9333 34.8043 24.9869 32.9289 26.8622C31.0536 28.7376 30 31.2811 30 33.9333Z" stroke="white" stroke-width="3" stroke-linecap="round" stroke-linejoin="round"/>
</svg>
