<svg width="30" height="29" viewBox="0 0 30 29" fill="none" xmlns="http://www.w3.org/2000/svg">
<path d="M9.99035 9.38654L1.48369 10.6199L1.33302 10.6505C1.10494 10.7111 0.897014 10.8311 0.730478 10.9983C0.563941 11.1655 0.444759 11.3739 0.385104 11.6022C0.325449 11.8305 0.327458 12.0706 0.390925 12.2978C0.454392 12.5251 0.577043 12.7315 0.746354 12.8959L6.90902 18.8945L5.45569 27.3679L5.43835 27.5145C5.42439 27.7504 5.47338 27.9858 5.58029 28.1965C5.6872 28.4073 5.8482 28.5858 6.0468 28.7139C6.2454 28.842 6.47447 28.9149 6.71055 28.9253C6.94663 28.9358 7.18124 28.8833 7.39035 28.7732L14.9984 24.7732L22.589 28.7732L22.7224 28.8345C22.9424 28.9212 23.1816 28.9478 23.4154 28.9116C23.6491 28.8753 23.869 28.7775 24.0525 28.6282C24.236 28.4789 24.3764 28.2835 24.4595 28.0621C24.5425 27.8406 24.5651 27.601 24.525 27.3679L23.0704 18.8945L29.2357 12.8945L29.3397 12.7812C29.4882 12.5982 29.5857 12.3791 29.622 12.1463C29.6583 11.9134 29.6323 11.675 29.5465 11.4555C29.4607 11.236 29.3183 11.0431 29.1337 10.8966C28.9491 10.75 28.7289 10.655 28.4957 10.6212L19.989 9.38654L16.1864 1.67987C16.0763 1.45658 15.906 1.26856 15.6946 1.13708C15.4832 1.0056 15.2393 0.935913 14.9904 0.935913C14.7414 0.935913 14.4975 1.0056 14.2861 1.13708C14.0747 1.26856 13.9044 1.45658 13.7944 1.67987L9.99035 9.38654Z" fill="url(#paint0_linear_3_4498)"/>
<defs>
<linearGradient id="paint0_linear_3_4498" x1="14.9899" y1="0.935913" x2="14.9899" y2="28.9273" gradientUnits="userSpaceOnUse">
<stop stop-color="#FFE684"/>
<stop offset="1" stop-color="#E69539"/>
</linearGradient>
</defs>
</svg>
