<svg width="28" height="27" viewBox="0 0 28 27" fill="none" xmlns="http://www.w3.org/2000/svg">
<path d="M13.9969 0.266663L14.1542 0.275996L14.2329 0.286663L14.3142 0.303996L14.4622 0.349329C14.5644 0.387014 14.6616 0.43717 14.7515 0.498663L14.8902 0.607996L15.2302 0.898663C17.9199 3.13275 21.3193 4.3324 24.8155 4.28133L25.2715 4.268C25.5697 4.2544 25.8637 4.3412 26.1067 4.51453C26.3496 4.68785 26.5274 4.93767 26.6115 5.224C27.2667 7.45277 27.4672 9.7905 27.2011 12.0983C26.935 14.4061 26.2077 16.6368 25.0624 18.658C23.9171 20.6791 22.3772 22.4494 20.5343 23.8637C18.6913 25.278 16.5829 26.3073 14.3342 26.8907C14.1147 26.9476 13.8843 26.9476 13.6649 26.8907C11.4161 26.3075 9.30749 25.2782 7.46438 23.864C5.62126 22.4498 4.08124 20.6795 2.93583 18.6583C1.79042 16.6372 1.063 14.4064 0.796793 12.0985C0.530585 9.79068 0.731024 7.45286 1.3862 5.224C1.47035 4.93767 1.64812 4.68785 1.89106 4.51453C2.13401 4.3412 2.42808 4.2544 2.7262 4.268C6.37615 4.43484 9.95695 3.23332 12.7675 0.898663L13.1182 0.598663L13.2462 0.498663C13.3361 0.43717 13.4333 0.387014 13.5355 0.349329L13.6849 0.303996C13.7371 0.291374 13.7901 0.282023 13.8435 0.275996L13.9969 0.266663ZM18.9435 9.99066C18.8197 9.86669 18.6726 9.76835 18.5108 9.70125C18.3489 9.63415 18.1754 9.59961 18.0002 9.59961C17.825 9.59961 17.6515 9.63415 17.4896 9.70125C17.3277 9.76835 17.1807 9.86669 17.0569 9.99066L12.6662 14.38L10.9422 12.6573L10.8169 12.5467C10.5489 12.3394 10.2121 12.242 9.87483 12.2741C9.5376 12.3063 9.22524 12.4655 9.0012 12.7196C8.77715 12.9737 8.65822 13.3036 8.66856 13.6422C8.6789 13.9808 8.81774 14.3027 9.05687 14.5427L11.7235 17.2093L11.8489 17.32C12.1054 17.519 12.4257 17.6176 12.7498 17.5972C13.0738 17.5768 13.3793 17.4389 13.6089 17.2093L18.9422 11.876L19.0529 11.7507C19.2519 11.4941 19.3504 11.1738 19.3301 10.8498C19.3097 10.5257 19.1718 10.2203 18.9422 9.99066H18.9435Z" fill="#1BB96B"/>
</svg>
